<?xml version="1.0" encoding="UTF-8"?><svg xmlns="http://www.w3.org/2000/svg" width="900" height="900" viewBox="0 0 900 900">
    <rect width="900" height="900" fill="#fffdf8"/>
    <ellipse cx="40" cy="45" rx="9" ry="24" fill="#d87991" opacity="0.18" transform="rotate(0 40 45)"/><ellipse cx="157" cy="128" rx="13" ry="29" fill="#8aa58d" opacity="0.18" transform="rotate(37 157 128)"/><ellipse cx="274" cy="211" rx="17" ry="34" fill="#c5b4de" opacity="0.18" transform="rotate(74 274 211)"/><ellipse cx="391" cy="294" rx="9" ry="39" fill="#d7ae67" opacity="0.18" transform="rotate(111 391 294)"/><ellipse cx="508" cy="377" rx="13" ry="24" fill="#d87991" opacity="0.18" transform="rotate(148 508 377)"/><ellipse cx="625" cy="460" rx="17" ry="29" fill="#8aa58d" opacity="0.18" transform="rotate(5 625 460)"/><ellipse cx="742" cy="543" rx="9" ry="34" fill="#c5b4de" opacity="0.18" transform="rotate(42 742 543)"/><ellipse cx="859" cy="626" rx="13" ry="39" fill="#d7ae67" opacity="0.18" transform="rotate(79 859 626)"/><ellipse cx="156" cy="709" rx="17" ry="24" fill="#d87991" opacity="0.18" transform="rotate(116 156 709)"/><ellipse cx="273" cy="792" rx="9" ry="29" fill="#8aa58d" opacity="0.18" transform="rotate(153 273 792)"/><ellipse cx="390" cy="65" rx="13" ry="34" fill="#c5b4de" opacity="0.18" transform="rotate(10 390 65)"/><ellipse cx="507" cy="148" rx="17" ry="39" fill="#d7ae67" opacity="0.18" transform="rotate(47 507 148)"/><ellipse cx="624" cy="231" rx="9" ry="24" fill="#d87991" opacity="0.18" transform="rotate(84 624 231)"/><ellipse cx="741" cy="314" rx="13" ry="29" fill="#8aa58d" opacity="0.18" transform="rotate(121 741 314)"/><ellipse cx="858" cy="397" rx="17" ry="34" fill="#c5b4de" opacity="0.18" transform="rotate(158 858 397)"/><ellipse cx="155" cy="480" rx="9" ry="39" fill="#d7ae67" opacity="0.18" transform="rotate(15 155 480)"/><ellipse cx="272" cy="563" rx="13" ry="24" fill="#d87991" opacity="0.18" transform="rotate(52 272 563)"/><ellipse cx="389" cy="646" rx="17" ry="29" fill="#8aa58d" opacity="0.18" transform="rotate(89 389 646)"/><ellipse cx="506" cy="729" rx="9" ry="34" fill="#c5b4de" opacity="0.18" transform="rotate(126 506 729)"/><ellipse cx="623" cy="812" rx="13" ry="39" fill="#d7ae67" opacity="0.18" transform="rotate(163 623 812)"/><ellipse cx="740" cy="85" rx="17" ry="24" fill="#d87991" opacity="0.18" transform="rotate(20 740 85)"/><ellipse cx="857" cy="168" rx="9" ry="29" fill="#8aa58d" opacity="0.18" transform="rotate(57 857 168)"/><ellipse cx="154" cy="251" rx="13" ry="34" fill="#c5b4de" opacity="0.18" transform="rotate(94 154 251)"/><ellipse cx="271" cy="334" rx="17" ry="39" fill="#d7ae67" opacity="0.18" transform="rotate(131 271 334)"/><ellipse cx="388" cy="417" rx="9" ry="24" fill="#d87991" opacity="0.18" transform="rotate(168 388 417)"/><ellipse cx="505" cy="500" rx="13" ry="29" fill="#8aa58d" opacity="0.18" transform="rotate(25 505 500)"/><ellipse cx="622" cy="583" rx="17" ry="34" fill="#c5b4de" opacity="0.18" transform="rotate(62 622 583)"/><ellipse cx="739" cy="666" rx="9" ry="39" fill="#d7ae67" opacity="0.18" transform="rotate(99 739 666)"/><ellipse cx="856" cy="749" rx="13" ry="24" fill="#d87991" opacity="0.18" transform="rotate(136 856 749)"/><ellipse cx="153" cy="832" rx="17" ry="29" fill="#8aa58d" opacity="0.18" transform="rotate(173 153 832)"/><ellipse cx="270" cy="105" rx="9" ry="34" fill="#c5b4de" opacity="0.18" transform="rotate(30 270 105)"/><ellipse cx="387" cy="188" rx="13" ry="39" fill="#d7ae67" opacity="0.18" transform="rotate(67 387 188)"/><ellipse cx="504" cy="271" rx="17" ry="24" fill="#d87991" opacity="0.18" transform="rotate(104 504 271)"/><ellipse cx="621" cy="354" rx="9" ry="29" fill="#8aa58d" opacity="0.18" transform="rotate(141 621 354)"/><ellipse cx="738" cy="437" rx="13" ry="34" fill="#c5b4de" opacity="0.18" transform="rotate(178 738 437)"/><ellipse cx="855" cy="520" rx="17" ry="39" fill="#d7ae67" opacity="0.18" transform="rotate(35 855 520)"/><ellipse cx="152" cy="603" rx="9" ry="24" fill="#d87991" opacity="0.18" transform="rotate(72 152 603)"/><ellipse cx="269" cy="686" rx="13" ry="29" fill="#8aa58d" opacity="0.18" transform="rotate(109 269 686)"/><ellipse cx="386" cy="769" rx="17" ry="34" fill="#c5b4de" opacity="0.18" transform="rotate(146 386 769)"/><ellipse cx="503" cy="852" rx="9" ry="39" fill="#d7ae67" opacity="0.18" transform="rotate(3 503 852)"/><ellipse cx="620" cy="125" rx="13" ry="24" fill="#d87991" opacity="0.18" transform="rotate(40 620 125)"/><ellipse cx="737" cy="208" rx="17" ry="29" fill="#8aa58d" opacity="0.18" transform="rotate(77 737 208)"/><ellipse cx="854" cy="291" rx="9" ry="34" fill="#c5b4de" opacity="0.18" transform="rotate(114 854 291)"/><ellipse cx="151" cy="374" rx="13" ry="39" fill="#d7ae67" opacity="0.18" transform="rotate(151 151 374)"/><ellipse cx="268" cy="457" rx="17" ry="24" fill="#d87991" opacity="0.18" transform="rotate(8 268 457)"/><ellipse cx="385" cy="540" rx="9" ry="29" fill="#8aa58d" opacity="0.18" transform="rotate(45 385 540)"/><ellipse cx="502" cy="623" rx="13" ry="34" fill="#c5b4de" opacity="0.18" transform="rotate(82 502 623)"/><ellipse cx="619" cy="706" rx="17" ry="39" fill="#d7ae67" opacity="0.18" transform="rotate(119 619 706)"/><ellipse cx="736" cy="789" rx="9" ry="24" fill="#d87991" opacity="0.18" transform="rotate(156 736 789)"/><ellipse cx="853" cy="62" rx="13" ry="29" fill="#8aa58d" opacity="0.18" transform="rotate(13 853 62)"/><ellipse cx="150" cy="145" rx="17" ry="34" fill="#c5b4de" opacity="0.18" transform="rotate(50 150 145)"/><ellipse cx="267" cy="228" rx="9" ry="39" fill="#d7ae67" opacity="0.18" transform="rotate(87 267 228)"/><ellipse cx="384" cy="311" rx="13" ry="24" fill="#d87991" opacity="0.18" transform="rotate(124 384 311)"/><ellipse cx="501" cy="394" rx="17" ry="29" fill="#8aa58d" opacity="0.18" transform="rotate(161 501 394)"/><ellipse cx="618" cy="477" rx="9" ry="34" fill="#c5b4de" opacity="0.18" transform="rotate(18 618 477)"/><ellipse cx="735" cy="560" rx="13" ry="39" fill="#d7ae67" opacity="0.18" transform="rotate(55 735 560)"/><ellipse cx="852" cy="643" rx="17" ry="24" fill="#d87991" opacity="0.18" transform="rotate(92 852 643)"/><ellipse cx="149" cy="726" rx="9" ry="29" fill="#8aa58d" opacity="0.18" transform="rotate(129 149 726)"/><ellipse cx="266" cy="809" rx="13" ry="34" fill="#c5b4de" opacity="0.18" transform="rotate(166 266 809)"/><ellipse cx="383" cy="82" rx="17" ry="39" fill="#d7ae67" opacity="0.18" transform="rotate(23 383 82)"/><ellipse cx="500" cy="165" rx="9" ry="24" fill="#d87991" opacity="0.18" transform="rotate(60 500 165)"/><ellipse cx="617" cy="248" rx="13" ry="29" fill="#8aa58d" opacity="0.18" transform="rotate(97 617 248)"/><ellipse cx="734" cy="331" rx="17" ry="34" fill="#c5b4de" opacity="0.18" transform="rotate(134 734 331)"/><ellipse cx="851" cy="414" rx="9" ry="39" fill="#d7ae67" opacity="0.18" transform="rotate(171 851 414)"/><ellipse cx="148" cy="497" rx="13" ry="24" fill="#d87991" opacity="0.18" transform="rotate(28 148 497)"/><ellipse cx="265" cy="580" rx="17" ry="29" fill="#8aa58d" opacity="0.18" transform="rotate(65 265 580)"/><ellipse cx="382" cy="663" rx="9" ry="34" fill="#c5b4de" opacity="0.18" transform="rotate(102 382 663)"/><ellipse cx="499" cy="746" rx="13" ry="39" fill="#d7ae67" opacity="0.18" transform="rotate(139 499 746)"/><ellipse cx="616" cy="829" rx="17" ry="24" fill="#d87991" opacity="0.18" transform="rotate(176 616 829)"/><ellipse cx="733" cy="102" rx="9" ry="29" fill="#8aa58d" opacity="0.18" transform="rotate(33 733 102)"/><ellipse cx="850" cy="185" rx="13" ry="34" fill="#c5b4de" opacity="0.18" transform="rotate(70 850 185)"/><ellipse cx="147" cy="268" rx="17" ry="39" fill="#d7ae67" opacity="0.18" transform="rotate(107 147 268)"/>
  </svg>